<?xml version="1.0" encoding="utf-8"?>
<!-- Generator: Adobe Illustrator 19.0.0, SVG Export Plug-In . SVG Version: 6.00 Build 0)  -->
<svg version="1.1" id="Layer_1" xmlns="http://www.w3.org/2000/svg" xmlns:xlink="http://www.w3.org/1999/xlink" x="0px" y="0px"
	 viewBox="-191 382 227.2 30" style="enable-background:new -191 382 227.2 30;" xml:space="preserve">
<style type="text/css">
	.st0{fill:#FFFFFF;}
</style>
<path id="Jamen_Lyndon." class="st0" d="M-180.1,405.1c1.9-0.7,3.4-2.1,4.2-4c0.4-1.1,0.7-2.3,0.6-3.4V382h-5v15.6
	c0,1.1-0.2,1.9-0.7,2.4s-1.3,0.8-2.1,0.8s-1.6-0.2-2.2-0.8c-0.6-0.6-0.9-1.3-1.1-2l-4.6,1.9c0.2,0.8,0.6,1.6,1.1,2.3
	c0.5,0.7,1.1,1.3,1.8,1.8s1.5,0.9,2.3,1.2c0.9,0.3,1.8,0.4,2.7,0.4C-182,405.6-181,405.4-180.1,405.1z M-162,405h4.8v-9.3
	c0-2.3-0.7-4.1-2-5.2s-3.3-1.7-5.8-1.7c-1.4,0-2.7,0.3-3.9,0.8s-2.3,1.4-3.1,2.4l3.3,2.3c0.9-1.1,2.2-1.7,3.6-1.7
	c0.8,0,1.6,0.2,2.3,0.7c0.5,0.4,0.9,1.1,0.9,1.8v0.4c-0.6-0.2-1.1-0.3-1.7-0.5c-0.8-0.1-1.6-0.2-2.4-0.2c-0.8,0-1.7,0.1-2.5,0.4
	c-0.7,0.2-1.4,0.6-2,1.1s-1,1-1.3,1.7s-0.5,1.4-0.5,2.2c0,0.8,0.1,1.5,0.5,2.2c0.3,0.6,0.7,1.2,1.2,1.7s1.2,0.8,1.8,1.1
	c0.7,0.3,1.5,0.4,2.2,0.4c0.9,0,1.7-0.2,2.5-0.5c0.7-0.4,1.2-0.8,1.8-1.4h0.3L-162,405L-162,405z M-162.2,399.9
	c-0.1,0.4-0.4,0.7-0.6,1c-0.3,0.3-0.7,0.6-1,0.7c-0.5,0.2-0.9,0.3-1.4,0.3c-0.6,0-1.1-0.1-1.6-0.5c-0.4-0.3-0.6-0.8-0.6-1.3
	s0.2-1,0.6-1.4c0.6-0.4,1.2-0.6,1.9-0.5c0.5,0,1,0.1,1.5,0.2s1,0.3,1.5,0.5C-162,399.2-162.1,399.6-162.2,399.9z M-153.8,405h4.8
	v-7.1c-0.1-1.2,0.2-2.3,0.7-3.4c0.4-0.8,1.3-1.3,2.2-1.3c0.7-0.1,1.4,0.2,1.9,0.8c0.4,0.6,0.6,1.3,0.6,2v9h4.8v-7.1
	c-0.1-1.2,0.2-2.4,0.8-3.4c0.5-0.8,1.4-1.3,2.4-1.3c0.6,0,1.3,0.2,1.7,0.8c0.4,0.6,0.6,1.3,0.6,2v9h4.8v-10c0-0.9-0.1-1.7-0.4-2.5
	c-0.2-0.7-0.6-1.4-1-2c-0.5-0.6-1.1-1-1.8-1.3c-0.8-0.3-1.6-0.5-2.5-0.5c-1.2,0-2.3,0.3-3.3,0.9c-0.8,0.5-1.5,1.2-2,2
	c-0.4-0.8-0.9-1.5-1.7-2c-0.9-0.6-1.9-0.9-3-0.9c-1,0-2,0.2-2.8,0.7c-0.8,0.4-1.5,1.1-2,1.9h-0.3v-2h-4.5V405z M-113.7,399.3
	c-0.3,0.6-0.8,1.1-1.4,1.5c-0.7,0.4-1.4,0.6-2.2,0.6c-0.9,0-1.7-0.2-2.4-0.7c-0.8-0.5-1.3-1.3-1.4-2.3h11.6c0-0.1,0-0.3,0-0.4
	s0-0.3,0-0.5s0-0.3,0-0.5c0-1.1-0.2-2.2-0.5-3.2s-0.8-1.8-1.5-2.6c-0.7-0.8-1.5-1.4-2.5-1.8c-1.1-0.4-2.3-0.7-3.5-0.6
	c-1.1,0-2.3,0.2-3.3,0.7c-1,0.4-1.9,1.1-2.7,1.8c-1.6,1.6-2.4,3.7-2.4,5.9c0,1.2,0.2,2.3,0.6,3.4c0.4,1,1,1.9,1.8,2.7
	c0.8,0.8,1.7,1.4,2.7,1.8c1.1,0.4,2.2,0.6,3.4,0.6c1.6,0,3.2-0.4,4.6-1.2c1.3-0.8,2.3-1.9,3-3.2L-113.7,399.3z M-121,395.1
	c0.5-1.5,1.9-2.5,3.5-2.5c0.5,0,1,0.1,1.4,0.2s0.7,0.3,1.1,0.6c0.3,0.2,0.5,0.5,0.7,0.8c0.1,0.3,0.2,0.5,0.3,0.8h-7V395.1z
	 M-102.3,389.3h-4.5V405h4.8v-7.2c-0.1-1.2,0.2-2.3,0.9-3.3c0.6-0.8,1.5-1.3,2.5-1.3c0.7-0.1,1.4,0.3,1.9,0.8
	c0.4,0.6,0.6,1.4,0.6,2.1v8.9h4.8v-9.4c0-2.1-0.5-3.7-1.4-5c-1-1.3-2.4-1.9-4.4-1.9c-2.1,0-3.8,0.8-4.8,2.5h-0.3L-102.3,389.3
	L-102.3,389.3z M-80.3,405h14.7v-4.8h-9.7V382h-5V405L-80.3,405z M-62.7,412h5.3l9.9-22.7h-5.4l-3.5,8.7h-0.3l-3.6-8.7h-5.6
	l6.7,15.1L-62.7,412z M-41.1,389.3h-4.5V405h4.8v-7.2c-0.1-1.2,0.2-2.3,0.9-3.3c0.6-0.8,1.5-1.3,2.5-1.3c0.7-0.1,1.4,0.3,1.9,0.8
	c0.4,0.6,0.6,1.4,0.6,2.1v8.9h4.8v-9.4c0-2.1-0.5-3.7-1.4-5c-1-1.3-2.4-1.9-4.4-1.9c-2.1,0-3.8,0.8-4.8,2.5H-41L-41.1,389.3
	L-41.1,389.3z M-15,405h4.5v-23h-4.8v6.8l0.3,2.3h-0.3c-0.4-0.7-1-1.2-1.7-1.6c-0.9-0.5-1.9-0.7-2.9-0.7s-2,0.2-2.9,0.6
	s-1.7,1-2.4,1.7c-0.7,0.8-1.3,1.7-1.7,2.7c-0.4,1.1-0.6,2.2-0.6,3.4c0,1.2,0.2,2.3,0.6,3.4c0.4,1,0.9,1.9,1.7,2.7
	c0.7,0.7,1.5,1.3,2.4,1.7c0.9,0.4,1.9,0.6,2.9,0.6s2-0.2,2.9-0.7c0.7-0.4,1.3-0.9,1.7-1.6h0.3L-15,405L-15,405z M-20.3,400.8
	c-0.5-0.2-0.9-0.4-1.2-0.8c-0.4-0.3-0.6-0.8-0.8-1.2c-0.2-0.5-0.3-1.1-0.3-1.6c0-0.6,0.1-1.1,0.3-1.6c0.2-0.5,0.5-0.9,0.8-1.2
	c0.4-0.3,0.8-0.6,1.2-0.8c0.9-0.4,2-0.4,2.9,0c0.5,0.2,0.9,0.4,1.2,0.8c0.4,0.3,0.6,0.8,0.8,1.2c0.2,0.5,0.3,1.1,0.3,1.6
	c0,0.6-0.1,1.1-0.3,1.6c-0.2,0.5-0.5,0.9-0.8,1.2c-0.4,0.3-0.8,0.6-1.2,0.8C-18.3,401.1-19.4,401.1-20.3,400.8L-20.3,400.8z
	 M-2.9,389.4c-1,0.4-1.9,1-2.7,1.7c-0.8,0.8-1.4,1.7-1.8,2.7c-0.4,1.1-0.6,2.2-0.6,3.4c0,1.2,0.2,2.3,0.6,3.4c0.4,1,1,1.9,1.8,2.7
	c0.8,0.8,1.7,1.3,2.7,1.7c2.2,0.8,4.6,0.8,6.8,0c1-0.4,1.9-1,2.7-1.7c0.8-0.8,1.4-1.7,1.8-2.7c0.4-1.1,0.6-2.2,0.6-3.4
	c0-1.2-0.2-2.3-0.6-3.4c-0.4-1-1-1.9-1.8-2.7c-0.8-0.8-1.7-1.3-2.7-1.7C1.7,388.5-0.7,388.5-2.9,389.4L-2.9,389.4z M-0.9,400.8
	c-0.4-0.2-0.8-0.4-1.2-0.8c-0.4-0.3-0.6-0.8-0.8-1.2c-0.2-0.5-0.3-1.1-0.3-1.6c0-0.6,0.1-1.1,0.3-1.6c0.2-0.5,0.5-0.9,0.8-1.2
	c1.4-1.4,3.7-1.4,5.1,0l0,0c0.3,0.3,0.6,0.8,0.8,1.2c0.2,0.5,0.3,1.1,0.3,1.6c0,0.6-0.1,1.1-0.3,1.6S3.3,399.7,3,400
	c-0.3,0.3-0.7,0.6-1.2,0.8C1,401.1,0,401.1-0.9,400.8L-0.9,400.8z M15.9,389.3h-4.5V405h4.8v-7.2c-0.1-1.2,0.2-2.3,0.9-3.3
	c0.6-0.8,1.5-1.3,2.5-1.3c0.7-0.1,1.4,0.3,1.9,0.8c0.4,0.6,0.6,1.4,0.6,2.1v8.9h4.8v-9.4c0-2.1-0.5-3.7-1.4-5
	c-1-1.3-2.4-1.9-4.4-1.9c-2.1,0-3.8,0.8-4.8,2.5H16L15.9,389.3L15.9,389.3z M35.4,404.2c1.2-1.1,1.2-3,0.1-4.2l-0.1-0.1
	c-1.2-1.2-3.2-1.2-4.4,0c-1.2,1.1-1.2,3-0.1,4.2l0.1,0.1C32.3,405.3,34.2,405.3,35.4,404.2z"/>
</svg>
